<svg xmlns="http://www.w3.org/2000/svg" viewBox="0 0 16 16" fill="none">
  <path d="M3 8.5C3 8.5 3.5 7 5 7C5.8 7 6.2 7.5 6.5 8L7 8.5L7.5 8.8C7.8 9 8.2 9 8.5 8.8L9 8.5L9.5 8C9.8 7.5 10.2 7 11 7C12.5 7 13 8.5 13 8.5" stroke="#3ddc97" stroke-width="1.5" stroke-linecap="round" stroke-linejoin="round"/>
  <path d="M5.5 8.5L6 9.5L6.5 9.8C6.8 10 7.2 10 7.5 9.8L8 9.2L8.5 9.8C8.8 10 9.2 10 9.5 9.8L10 9.5L10.5 8.5" stroke="#3ddc97" stroke-width="1.5" stroke-linecap="round" stroke-linejoin="round"/>
  <path d="M4 6.5C4 5.5 4.5 4.5 5.5 4.5C6 4.5 6.3 4.8 6.5 5.2" stroke="#3ddc97" stroke-width="1.3" stroke-linecap="round"/>
  <path d="M12 6.5C12 5.5 11.5 4.5 10.5 4.5C10 4.5 9.7 4.8 9.5 5.2" stroke="#3ddc97" stroke-width="1.3" stroke-linecap="round"/>
  <circle cx="8" cy="3" r="1.2" fill="#3ddc97"/>
</svg>
