<svg xmlns="http://www.w3.org/2000/svg" width="48" height="48" viewBox="0 0 48 48" fill="none">
  <path d="M24 40c8-4 14-10 14-18 0-6-4-10-10-10-3 0-6 2-8 5-2-3-5-5-8-5-6 0-10 4-10 10 0 8 6 14 14 18l4 2 4-2z" stroke="#3ddc97" stroke-width="2.5" stroke-linecap="round" stroke-linejoin="round"/>
  <path d="M20 38c-2 1-4 2-4 2" stroke="#3ddc97" stroke-width="2.5" stroke-linecap="round"/>
  <path d="M28 38c2 1 4 2 4 2" stroke="#3ddc97" stroke-width="2.5" stroke-linecap="round"/>
  <circle cx="24" cy="24" r="6" stroke="#3ddc97" stroke-width="2"/>
  <path d="M24 21v6M22 24h4" stroke="#3ddc97" stroke-width="2" stroke-linecap="round"/>
</svg>

